<svg width="1440" height="1024" viewBox="0 0 1440 1024" fill="none" xmlns="http://www.w3.org/2000/svg">
<g id="Desktop - 1">
<rect width="1440" height="1024" fill="white"/>
<g id="signIn 1" clip-path="url(#clip0)">
<path id="Vector" d="M256.351 796.007L319.782 704.868L256.318 805.92L256.281 816.289C251.758 816.251 247.28 816.104 242.848 815.848C242.828 813.494 248.219 683.949 247.99 681.605C248.303 681.516 248.479 669.353 248.603 668.821L182.336 569.227L248.674 659.395L248.872 662.06L252.807 561.412L195.844 458.345L253.258 543.727C253.279 542.358 255.975 335.705 256.002 334.43C256.018 335.107 257.256 498.885 257.265 499.575L311.744 433.652L257.212 513.74L256.934 603.82L307.49 516.712C244.397 643.745 258.359 599.291 256.748 667.152L330.184 545.86L256.685 684.625L256.351 796.007Z" fill="#D0CDE1"/>
<path id="Vector_2" d="M1226.75 808.38L1253.18 770.4L1226.73 812.511L1226.72 816.832C1224.83 816.816 1222.97 816.755 1221.12 816.648C1221.11 815.667 1223.36 761.683 1223.26 760.706C1223.39 760.669 1223.47 755.6 1223.52 755.378L1195.9 713.875L1223.55 751.45L1223.63 752.561L1225.27 710.619L1201.53 667.668L1225.46 703.249C1225.47 702.678 1226.59 616.561 1226.6 616.029C1226.61 616.312 1227.12 684.562 1227.13 684.849L1249.83 657.378L1227.11 690.753L1226.99 728.291L1248.06 691.991C1221.77 744.929 1227.58 726.404 1226.91 754.683L1257.52 704.138L1226.89 761.964L1226.75 808.38Z" fill="#D0CDE1"/>
<path id="Vector_3" d="M718 835.899C1014.02 835.899 1254 826.497 1254 814.899C1254 803.301 1014.02 793.899 718 793.899C421.975 793.899 182 803.301 182 814.899C182 826.497 421.975 835.899 718 835.899Z" fill="#D0CDE1"/>
<path id="Vector_4" d="M978 437.031H366V801.901H978V437.031Z" fill="#3F3D56"/>
<path id="Vector_5" d="M517.46 437.031C516.834 475.426 501.144 512.037 473.772 538.969C446.4 565.901 409.54 580.997 371.14 581.001C369.42 581.001 367.71 580.971 366 580.911V437.031H517.46Z" fill="#13EF41"/>
<path id="Vector_6" d="M701.937 801.9H643.73C645.92 795.944 649.885 790.803 655.09 787.172C660.294 783.54 666.487 781.593 672.834 781.593C679.18 781.593 685.373 783.54 690.578 787.172C695.782 790.803 699.747 795.944 701.937 801.9V801.9Z" fill="#13EF41"/>
<path id="Vector_7" d="M978 613.171V736.07C962.222 735.299 947.345 728.488 936.451 717.049C925.557 705.609 919.48 690.418 919.48 674.621C919.48 658.824 925.557 643.632 936.451 632.192C947.345 620.753 962.222 613.942 978 613.171Z" fill="#13EF41"/>
<path id="Vector_8" d="M865.57 569.615H479.49C469.532 569.615 461.459 577.688 461.459 587.646V587.646C461.459 597.604 469.532 605.677 479.49 605.677H865.57C875.529 605.677 883.601 597.604 883.601 587.646C883.601 577.688 875.529 569.615 865.57 569.615Z" fill="white"/>
<path id="Vector_9" d="M865.57 640.679H479.49C469.532 640.679 461.459 648.752 461.459 658.71V658.71C461.459 668.669 469.532 676.741 479.49 676.741H865.57C875.529 676.741 883.601 668.669 883.601 658.71C883.601 648.752 875.529 640.679 865.57 640.679Z" fill="white"/>
<path id="Vector_10" d="M865.57 711.743H753.628C743.67 711.743 735.597 719.816 735.597 729.774C735.597 739.733 743.67 747.806 753.628 747.806H865.57C875.529 747.806 883.601 739.733 883.601 729.774C883.601 719.816 875.529 711.743 865.57 711.743Z" fill="white"/>
<path id="Vector_11" d="M1075.05 301.12C1075.05 301.12 1091.88 307.664 1092.82 329.168C1093.75 350.671 1088.14 410.506 1088.14 410.506C1088.14 410.506 1108.71 440.424 1092.82 448.839C1076.92 457.253 1075.05 415.181 1075.05 415.181L1056.35 326.363C1056.35 326.363 1067.57 300.185 1075.05 301.12Z" fill="#A0616A"/>
<path id="Vector_12" d="M967.535 394.613C967.535 394.613 844.124 348.801 850.669 402.092C857.213 455.383 889.001 522.698 889.001 522.698L900.22 540.462H923.593L908.634 444.164C908.634 444.164 961.925 474.082 977.819 469.407C977.819 469.407 998.388 606.842 1005.87 617.126C1013.35 627.41 1026.44 751.756 1026.44 751.756L1038.59 766.715H1061.96V556.356C1061.96 556.356 1102.16 425.465 1071.31 418.921C1040.46 412.376 967.535 394.613 967.535 394.613Z" fill="#2F2E41"/>
<path id="Vector_13" d="M897.415 528.308C897.415 528.308 891.805 518.023 882.456 528.308C873.107 538.592 850.668 550.746 850.668 550.746C850.668 550.746 802.052 561.965 841.319 571.315C880.586 580.664 885.261 571.315 885.261 571.315C885.261 571.315 891.805 573.184 897.415 575.054C903.025 576.924 939.487 570.38 939.487 564.77C939.487 559.16 927.108 525.636 922.078 530.712C917.049 535.787 897.415 528.308 897.415 528.308Z" fill="#2F2E41"/>
<path id="Vector_14" d="M1040.38 757.461C1040.38 757.461 1026.6 746.108 1023.35 749.352C1020.11 752.595 1003.08 774.489 1003.08 774.489C1003.08 774.489 957.67 809.357 999.026 815.034C1040.38 820.71 1037.95 805.303 1037.95 805.303H1050.92C1052.54 805.303 1074.44 795.572 1073.63 791.518C1072.82 787.464 1063.09 754.402 1059.84 756.742C1056.6 759.082 1040.38 757.461 1040.38 757.461Z" fill="#2F2E41"/>
<path id="Vector_15" d="M915.179 265.592C932.735 265.592 946.966 251.36 946.966 233.805C946.966 216.249 932.735 202.017 915.179 202.017C897.623 202.017 883.391 216.249 883.391 233.805C883.391 251.36 897.623 265.592 915.179 265.592Z" fill="#A0616A"/>
<path id="Vector_16" d="M937.617 230.065C937.617 230.065 961.925 250.633 978.754 250.633C995.583 250.633 954.446 288.966 954.446 288.966L917.984 256.243L937.617 230.065Z" fill="#A0616A"/>
<path id="Vector_17" d="M946.966 288.966L946.238 281.6C946.238 281.6 964.73 248.764 970.34 245.959C975.949 243.154 979.689 243.154 979.689 243.154C979.689 243.154 998.388 223.52 1018.96 233.805C1039.52 244.089 1088.14 309.534 1088.14 309.534C1088.14 309.534 1053.55 312.339 1058.22 339.452C1058.22 339.452 1092.82 428.27 1083.47 429.205C1074.12 430.14 1046.07 423.596 1017.09 436.685C988.103 449.774 975.014 441.359 975.014 441.359L960.055 392.743C960.055 392.743 932.008 376.849 932.942 362.825L892.273 381.056L896.013 346.464L920.788 317.948C920.788 317.948 916.114 314.209 946.966 288.966Z" fill="#2ECA63"/>
<path id="Vector_18" d="M885.938 237.241C884.675 238.645 883.091 239.724 881.322 240.385C879.512 240.896 877.231 240.269 876.509 238.532L877.853 236.783L873.824 234.279L875.58 232.219L872.334 228.694L874.896 226.662L870.019 223.174C876.34 212.859 883.176 202.416 893.156 195.578C903.135 188.74 917.08 186.311 927.304 192.778C932.612 196.136 936.365 201.465 939.372 206.98C945.418 218.07 950.748 228.881 951.535 241.488C947.737 237.789 942.192 235.704 938.393 232.006C936.712 230.221 934.806 228.661 932.724 227.365C928.752 225.125 923.998 224.927 919.551 223.916C915.811 223.066 913.385 221.381 910.555 218.971C907.19 216.104 907.053 217.213 903.654 220.44C897.753 226.045 891.847 231.645 885.938 237.241Z" fill="#2F2E41"/>
</g>
<g id="hand">
<path id="Vector_19" d="M903.025 370.304C903.025 370.304 862.823 396.482 860.953 375.914C859.083 355.346 873.107 274.942 873.107 274.942C873.107 274.942 874.977 240.349 894.61 248.764C914.244 257.178 889.001 286.161 889.001 286.161L891.805 351.606L910.504 350.671L903.025 370.304Z" fill="#A0616A"/>
</g>
</g>
<defs>
<clipPath id="clip0">
<rect width="1075.52" height="646.899" fill="white" transform="translate(182 189)"/>
</clipPath>
</defs>
</svg>
